<svg width="1515" height="1099" viewBox="0 0 1515 1099" fill="none" xmlns="http://www.w3.org/2000/svg">
<g filter="url(#filter0_d_13_128)">
<g clip-path="url(#clip0_13_128)">
<rect x="75" width="1440" height="1024" rx="20" fill="white"/>
<rect x="75" width="407" height="784" fill="url(#paint0_radial_13_128)"/>
<rect width="275" height="784" transform="matrix(-1 0 0 1 757 0)" fill="url(#paint1_radial_13_128)"/>
<rect x="757" width="364" height="784" fill="url(#paint2_radial_13_128)"/>
<rect width="394" height="784" transform="matrix(-1 0 0 1 1515 0)" fill="url(#paint3_radial_13_128)"/>
<path d="M364.868 693.748L288.035 723.898C287.336 724.172 287.177 725.09 287.744 725.583L344.156 774.701C344.375 774.891 344.665 774.977 344.951 774.937L428.592 763.266C429.394 763.154 429.737 762.185 429.184 761.593L365.964 693.996C365.684 693.696 365.25 693.598 364.868 693.748Z" fill="#D897A9"/>
<path d="M636.962 708.145L538.444 769.413C537.982 769.7 537.752 769.843 537.626 770.07C537.5 770.297 537.5 770.568 537.5 771.111V823.476C537.5 824.429 537.5 824.906 537.797 825.199C538.094 825.493 538.571 825.487 539.524 825.475H539.524L1440.64 814.504C1440.82 814.502 1440.91 814.501 1441 814.484C1441.08 814.467 1441.17 814.434 1441.34 814.369L1513.22 786.495C1513.84 786.255 1514.15 786.136 1514.33 785.88C1514.5 785.625 1514.5 785.293 1514.5 784.63V612.613C1514.5 609.212 1514.5 607.512 1513.73 607.332C1512.95 607.153 1512.2 608.679 1510.7 611.731L1474.82 684.822C1474.43 685.617 1474.24 686.015 1473.87 686.155C1473.5 686.295 1473.09 686.127 1472.27 685.791L1444.8 674.531C1444.17 674.274 1443.86 674.146 1443.55 674.215C1443.24 674.285 1443.01 674.535 1442.56 675.036L1359.05 766.896L1359.05 766.896C1358.78 767.194 1358.64 767.343 1358.47 767.428C1358.29 767.512 1358.09 767.524 1357.68 767.547L1124.96 780.973C1124.73 780.987 1124.62 780.993 1124.5 780.974C1124.39 780.955 1124.29 780.91 1124.07 780.821L985.78 722.827C985.395 722.666 985.203 722.585 985 722.586C984.798 722.586 984.606 722.668 984.222 722.831L874.426 769.606C873.972 769.799 873.744 769.896 873.508 769.881C873.271 769.866 873.058 769.741 872.632 769.492L812.468 734.274C812.235 734.138 812.119 734.07 811.991 734.035C811.862 734 811.727 734 811.458 734H784.672C784.339 734 784.172 734 784.017 733.948C783.863 733.896 783.73 733.796 783.465 733.595L713.3 680.484C712.678 680.013 712.366 679.777 712.01 679.79C711.655 679.803 711.361 680.061 710.774 680.576L664.097 721.537C663.568 722.002 663.303 722.234 662.979 722.263C662.654 722.292 662.352 722.111 661.749 721.749L639.048 708.129C638.538 707.823 638.283 707.67 638.001 707.672C637.72 707.674 637.468 707.831 636.963 708.145L636.962 708.145Z" fill="url(#paint4_linear_13_128)"/>
<path d="M219.691 665.22L141.792 737.83L141.792 737.83C140.963 738.602 140.549 738.988 140.58 739.462C140.611 739.935 141.072 740.264 141.995 740.922L306.332 858.024L306.332 858.024C306.662 858.259 306.826 858.376 307.018 858.421C307.21 858.466 307.41 858.434 307.81 858.37L433.941 838.09C434.219 838.045 434.357 838.023 434.495 838.039C434.633 838.055 434.763 838.109 435.023 838.217L645.945 925.563C646.46 925.776 646.718 925.883 646.981 925.85C647.244 925.816 647.467 925.648 647.913 925.313L692.83 891.504C693.161 891.255 693.326 891.131 693.521 891.082C693.716 891.032 693.92 891.063 694.329 891.124L786.764 904.965C786.882 904.982 786.941 904.991 787 904.993C787.06 904.995 787.119 904.989 787.238 904.979L1071.79 879.519C1071.89 879.51 1071.95 879.505 1072 879.506C1072.05 879.507 1072.11 879.513 1072.21 879.527L1215 897.437C1215.25 897.468 1215.37 897.484 1215.5 897.469C1215.62 897.454 1215.74 897.408 1215.97 897.318L1438.91 811.001C1440.09 810.544 1440.68 810.316 1440.81 809.821C1440.94 809.326 1440.54 808.838 1439.74 807.863L1439.73 807.862L1350.46 699.764C1349.78 698.942 1349.44 698.532 1348.99 698.519C1348.53 698.506 1348.17 698.897 1347.45 699.679L1287.54 764.417C1287.27 764.705 1287.14 764.849 1286.97 764.931C1286.79 765.014 1286.6 765.027 1286.21 765.054L999.754 784.449C999.381 784.474 999.195 784.487 999.02 784.434C998.845 784.381 998.697 784.268 998.401 784.04L957.516 752.663C956.799 752.113 956.44 751.838 956.041 751.881C955.643 751.924 955.351 752.27 954.769 752.961L911.277 804.578C910.898 805.027 910.709 805.252 910.446 805.341C910.183 805.431 909.896 805.368 909.322 805.243L748.124 770.136C747.815 770.069 747.66 770.035 747.505 770.05C747.35 770.064 747.204 770.127 746.912 770.251L665.173 805.212C664.84 805.355 664.674 805.426 664.497 805.435C664.32 805.445 664.146 805.391 663.8 805.285L488.913 751.627C488.707 751.564 488.604 751.532 488.498 751.523C488.392 751.514 488.285 751.528 488.072 751.555L345.382 769.887C344.948 769.942 344.731 769.97 344.527 769.91C344.324 769.849 344.157 769.706 343.825 769.421L222.358 665.165C221.712 664.611 221.389 664.334 221.007 664.342C220.625 664.349 220.314 664.64 219.691 665.22Z" fill="url(#paint5_linear_13_128)"/>
<circle cx="869.991" cy="595.205" r="3.62757" fill="white" fill-opacity="0.25"/>
<circle cx="737.5" cy="329.5" r="3.5" fill="white" fill-opacity="0.25"/>
<circle cx="289.5" cy="503.5" r="2.5" fill="white" fill-opacity="0.25"/>
<circle cx="344.446" cy="101.402" r="2.26723" fill="white" fill-opacity="0.25"/>
<circle cx="1385.36" cy="193.36" r="1.36034" fill="white" fill-opacity="0.25"/>
<circle cx="176.36" cy="154.36" r="1.36034" fill="white" fill-opacity="0.25"/>
<circle cx="159.36" cy="523.36" r="1.36034" fill="white" fill-opacity="0.25"/>
<circle cx="953.814" cy="424.814" r="1.81379" fill="white" fill-opacity="0.25"/>
<circle cx="381.814" cy="157.814" r="1.81379" fill="white" fill-opacity="0.25"/>
<circle cx="479.814" cy="691.814" r="1.81379" fill="white" fill-opacity="0.25"/>
<circle cx="513.814" cy="286.814" r="1.81379" fill="white" fill-opacity="0.25"/>
<circle cx="1343.81" cy="86.8138" r="1.81379" fill="white" fill-opacity="0.25"/>
<circle cx="863.814" cy="303.814" r="1.81379" fill="white" fill-opacity="0.25"/>
<circle cx="524.814" cy="716.814" r="1.81379" fill="white" fill-opacity="0.25"/>
<circle cx="732" cy="516" r="2" fill="white" fill-opacity="0.25"/>
<circle cx="794.628" cy="711.628" r="3.62757" fill="white" fill-opacity="0.25"/>
<circle cx="136.628" cy="680.628" r="3.62757" fill="white" fill-opacity="0.25"/>
<circle cx="446.018" cy="45.1741" r="3.17413" fill="white" fill-opacity="0.25"/>
<circle cx="180.267" cy="394.267" r="2.26723" fill="white" fill-opacity="0.25"/>
<circle cx="526.732" cy="454.183" r="3.17413" fill="white" fill-opacity="0.25"/>
<circle cx="1148.17" cy="199.174" r="3.17413" fill="white" fill-opacity="0.25"/>
<circle cx="877.174" cy="26.1741" r="3.17413" fill="white" fill-opacity="0.25"/>
<circle cx="1380.5" cy="644.5" r="1.5" fill="white" fill-opacity="0.25"/>
<circle cx="1487.72" cy="389.721" r="2.72068" fill="white" fill-opacity="0.25"/>
<circle cx="1482.72" cy="28.7207" r="2.72068" fill="white" fill-opacity="0.25"/>
<circle cx="692.721" cy="119.721" r="2.72068" fill="white" fill-opacity="0.25"/>
<circle cx="411.267" cy="626.267" r="2.26723" fill="white" fill-opacity="0.25"/>
<circle cx="267.814" cy="290.489" r="1.81379" fill="white" fill-opacity="0.25"/>
<circle cx="1374.5" cy="459.5" r="2.5" fill="white" fill-opacity="0.25"/>
<circle cx="1180" cy="147" r="3" fill="white" fill-opacity="0.25"/>
<circle cx="1216" cy="676" r="2" fill="white" fill-opacity="0.25"/>
<circle cx="1155.08" cy="425.081" r="4.08102" fill="white" fill-opacity="0.25"/>
<circle cx="1084" cy="707" r="3" fill="white" fill-opacity="0.25"/>
<path d="M306.331 842.023L77.6621 678.758C76.2772 677.769 75.5847 677.274 75.0423 677.554C74.5 677.833 74.5 678.684 74.5 680.385V1071C74.5 1071.94 74.5 1072.41 74.7929 1072.71C75.0858 1073 75.5572 1073 76.5 1073H645C645.943 1073 646.414 1073 646.707 1072.71C647 1072.41 647 1071.94 647 1071V910.839C647 910.19 647 909.866 646.831 909.613C646.662 909.361 646.362 909.237 645.761 908.99L435.022 822.215C434.763 822.108 434.633 822.055 434.495 822.039C434.358 822.023 434.22 822.045 433.943 822.09L307.811 842.37H307.811C307.411 842.434 307.211 842.466 307.019 842.421C306.826 842.376 306.661 842.258 306.331 842.023Z" fill="url(#paint6_linear_13_128)"/>
<path d="M692.781 843.109L433.028 1069.49C431.337 1070.96 430.491 1071.7 430.735 1072.35C430.978 1073 432.1 1073 434.343 1073H434.343L1513 1072.42C1513.94 1072.42 1514.41 1072.42 1514.71 1072.13C1515 1071.83 1515 1071.36 1515 1070.42V718.096C1515 716.701 1515 716.003 1514.54 715.708C1514.09 715.412 1513.45 715.699 1512.18 716.273L1216.03 849.81C1215.77 849.929 1215.64 849.989 1215.49 850.009C1215.35 850.029 1215.21 850.008 1214.92 849.966L1072.25 829.13C1072.12 829.112 1072.06 829.103 1072 829.102C1071.94 829.101 1071.88 829.107 1071.75 829.12L787.277 858.753L787.276 858.753C787.138 858.768 787.069 858.775 787 858.772C786.931 858.77 786.863 858.758 786.726 858.734L694.439 842.647C693.977 842.566 693.747 842.526 693.529 842.587C693.311 842.647 693.135 842.801 692.781 843.109Z" fill="url(#paint7_linear_13_128)"/>
<path d="M693.5 1022.3L523.673 1079.1L523.673 1079.1C519.244 1080.58 517.03 1081.32 517.166 1082.16C517.303 1083 519.638 1083 524.308 1082.99L1513 1082.45C1513.94 1082.45 1514.41 1082.45 1514.71 1082.16C1515 1081.87 1515 1081.4 1515 1080.45V828.74C1515 827.488 1515 826.862 1514.59 826.562C1514.18 826.263 1513.58 826.453 1512.39 826.835L1282.95 900.221C1282.73 900.293 1282.61 900.329 1282.5 900.338C1282.38 900.347 1282.26 900.328 1282.03 900.291L1076.55 867.645C1076.28 867.601 1076.14 867.58 1076 867.595C1075.87 867.611 1075.74 867.662 1075.48 867.766L693.5 1022.3Z" fill="url(#paint8_linear_13_128)"/>
</g>
</g>
<defs>
<filter id="filter0_d_13_128" x="0" y="0" width="1515" height="1099" filterUnits="userSpaceOnUse" color-interpolation-filters="sRGB">
<feFlood flood-opacity="0" result="BackgroundImageFix"/>
<feColorMatrix in="SourceAlpha" type="matrix" values="0 0 0 0 0 0 0 0 0 0 0 0 0 0 0 0 0 0 127 0" result="hardAlpha"/>
<feOffset dx="-50" dy="50"/>
<feGaussianBlur stdDeviation="12.5"/>
<feColorMatrix type="matrix" values="0 0 0 0 0 0 0 0 0 0 0 0 0 0 0 0 0 0 0.15 0"/>
<feBlend mode="normal" in2="BackgroundImageFix" result="effect1_dropShadow_13_128"/>
<feBlend mode="normal" in="SourceGraphic" in2="effect1_dropShadow_13_128" result="shape"/>
</filter>
<radialGradient id="paint0_radial_13_128" cx="0" cy="0" r="1" gradientUnits="userSpaceOnUse" gradientTransform="translate(278.5 50.8702) rotate(90) scale(795.63 1733.36)">
<stop stop-color="#000D85"/>
<stop offset="0.225733" stop-color="#7011CE"/>
<stop offset="0.652253" stop-color="#FF5D53"/>
<stop offset="1" stop-color="#F5F95A"/>
</radialGradient>
<radialGradient id="paint1_radial_13_128" cx="0" cy="0" r="1" gradientUnits="userSpaceOnUse" gradientTransform="translate(137.5 50.8702) rotate(90) scale(795.63 1171.19)">
<stop stop-color="#000D85"/>
<stop offset="0.225733" stop-color="#7011CE"/>
<stop offset="0.652253" stop-color="#FF5D53"/>
<stop offset="1" stop-color="#F5F95A"/>
</radialGradient>
<radialGradient id="paint2_radial_13_128" cx="0" cy="0" r="1" gradientUnits="userSpaceOnUse" gradientTransform="translate(939 50.8702) rotate(90) scale(795.63 1550.23)">
<stop stop-color="#000D85"/>
<stop offset="0.225733" stop-color="#7011CE"/>
<stop offset="0.652253" stop-color="#FF5D53"/>
<stop offset="1" stop-color="#F5F95A"/>
</radialGradient>
<radialGradient id="paint3_radial_13_128" cx="0" cy="0" r="1" gradientUnits="userSpaceOnUse" gradientTransform="translate(197 50.8702) rotate(90) scale(795.63 1677.99)">
<stop stop-color="#000D85"/>
<stop offset="0.225733" stop-color="#7011CE"/>
<stop offset="0.652253" stop-color="#FF5D53"/>
<stop offset="1" stop-color="#F5F95A"/>
</radialGradient>
<linearGradient id="paint4_linear_13_128" x1="1477.5" y1="547.5" x2="657" y2="842.5" gradientUnits="userSpaceOnUse">
<stop stop-color="#C97FE2"/>
<stop offset="0.491021" stop-color="#FF594F"/>
<stop offset="0.732053" stop-color="#38368F"/>
<stop offset="1" stop-color="#E2857F"/>
</linearGradient>
<linearGradient id="paint5_linear_13_128" x1="978.5" y1="392" x2="790.75" y2="926" gradientUnits="userSpaceOnUse">
<stop stop-color="#CA7E5D"/>
<stop offset="1" stop-color="#553072"/>
</linearGradient>
<linearGradient id="paint6_linear_13_128" x1="510" y1="660.5" x2="108" y2="1126.5" gradientUnits="userSpaceOnUse">
<stop stop-color="#3E2361"/>
<stop offset="1" stop-color="#040615"/>
</linearGradient>
<linearGradient id="paint7_linear_13_128" x1="1072.5" y1="839.572" x2="329.106" y2="1063.77" gradientUnits="userSpaceOnUse">
<stop stop-color="#341B55"/>
<stop offset="1" stop-color="#4E2B7B"/>
</linearGradient>
<linearGradient id="paint8_linear_13_128" x1="1081.5" y1="863.73" x2="1342.22" y2="1256.39" gradientUnits="userSpaceOnUse">
<stop stop-color="#220F40"/>
<stop offset="1" stop-color="#34244F"/>
</linearGradient>
<clipPath id="clip0_13_128">
<rect x="75" width="1440" height="1024" rx="20" fill="white"/>
</clipPath>
</defs>
</svg>
