<svg width="590" height="658" viewBox="0 0 590 658" fill="none" xmlns="http://www.w3.org/2000/svg">
<g style="mix-blend-mode:overlay">
<path d="M571.546 224.435C568.326 226.268 491.684 264.947 491.684 350.708C495.296 448.513 588.403 482.813 590 482.813C588.403 484.645 575.944 529.537 539.036 576.595C509.745 617.131 477.235 658 427.867 658C380.908 658 364.051 630.984 309.867 630.984C251.678 630.984 235.214 658 190.663 658C141.295 658 106.377 614.941 75.4894 574.786C35.3619 522.23 1.25492 439.754 0.0508386 360.562C-0.76061 318.598 8.08679 277.348 30.5456 242.311C62.2444 193.396 118.836 160.192 180.637 159.097C227.989 157.645 270.132 188.66 299.03 188.66C326.724 188.66 378.5 159.097 437.081 159.097C462.367 159.121 529.796 166.047 571.546 224.435ZM295.025 150.718C286.597 112.396 309.867 74.0738 331.541 49.6285C359.235 20.0656 402.974 0 440.693 0C443.102 38.3222 427.841 75.9066 400.566 103.28C376.092 132.843 333.949 155.098 295.025 150.718Z" fill="white"/>
</g>
</svg>
