<svg width="480" height="480" viewBox="0 0 480 480" fill="none" xmlns="http://www.w3.org/2000/svg">
<g style="mix-blend-mode:overlay">
<path fill-rule="evenodd" clip-rule="evenodd" d="M238.235 448.235C354.215 448.235 448.235 354.215 448.235 238.235C448.235 122.255 354.215 28.2353 238.235 28.2353C122.256 28.2353 28.2354 122.255 28.2354 238.235C28.2354 341.739 103.116 427.754 201.66 445.061V302.459H148.235V243.187H201.66V198.012C201.66 146.629 233.058 118.235 281.139 118.235C304.153 118.235 328.235 122.24 328.235 122.24V172.701H301.688C275.55 172.701 267.414 188.521 267.414 204.74V243.187H325.769L316.441 302.459H267.414V445.752C257.286 447.303 246.938 448.139 236.405 448.227C237.015 448.233 237.625 448.235 238.235 448.235Z" fill="white"/>
</g>
</svg>
