<svg width="1561" height="1469" viewBox="0 0 1561 1469" fill="none" xmlns="http://www.w3.org/2000/svg">
<path opacity="0.2" d="M694.325 387.19L313.497 171.77L311.73 369.165L692.558 584.585L694.325 387.19Z" fill="url(#paint0_linear_767_1598)"/>
<path opacity="0.15" d="M410.516 274.444L525.029 339.299L524.852 362.98L410.339 298.124L410.516 274.444Z" fill="white"/>
<path opacity="0.15" d="M410.162 321.981L654.033 459.998L653.856 484.032L409.985 346.015L410.162 321.981Z" fill="white"/>
<path fill-rule="evenodd" clip-rule="evenodd" d="M390.194 281.689C390.017 297.947 380.297 305.723 368.281 298.831C356.264 292.116 346.721 273.383 346.898 257.125C347.074 240.867 356.794 233.092 368.811 239.984C380.828 246.699 390.37 265.431 390.194 281.689Z" fill="#F2C94C"/>
<path opacity="0.2" d="M1560.25 1271.49L1179.59 1056.07L1177.83 1253.46L1558.66 1468.88L1560.25 1271.49Z" fill="url(#paint1_linear_767_1598)"/>
<path opacity="0.15" d="M1276.61 1158.74L1391.12 1223.6L1390.95 1247.28L1276.43 1182.42L1276.61 1158.74Z" fill="white"/>
<path opacity="0.15" d="M1276.26 1206.28L1520.13 1344.3L1519.96 1368.33L1276.08 1230.31L1276.26 1206.28Z" fill="white"/>
<path fill-rule="evenodd" clip-rule="evenodd" d="M1256.29 1165.99C1256.11 1182.25 1246.39 1190.02 1234.38 1183.13C1222.36 1176.41 1212.82 1157.68 1212.99 1141.42C1213.17 1125.17 1222.89 1117.39 1234.91 1124.28C1246.92 1131 1256.47 1149.73 1256.29 1165.99Z" fill="#F2C94C"/>
<path opacity="0.1" d="M1116.15 7.77561C1044.41 21.7364 883.061 39.7616 812.728 0C813.258 281.336 882.178 680.543 1107.49 1009.77C1336.34 937.491 1411.45 619.928 1416.75 341.95C1346.42 302.012 1187.02 102.497 1116.15 7.77561Z" fill="url(#paint2_linear_767_1598)"/>
<path opacity="0.3" d="M1028.5 66.0929C956.751 80.0536 795.407 98.0789 725.073 58.3173C725.604 339.653 794.524 738.86 1019.84 1068.09C1248.69 995.808 1323.8 678.069 1329.1 400.267C1258.76 360.329 1099.36 160.814 1028.5 66.0929Z" fill="url(#paint3_linear_767_1598)"/>
<path opacity="0.4" d="M1329.28 400.091C1258.77 360.152 1099.54 160.814 1028.68 66.093L1020.02 1067.91C1248.69 995.808 1323.8 678.069 1329.28 400.091Z" fill="url(#paint4_linear_767_1598)"/>
<path opacity="0.1" d="M645.905 597.661L1000.58 792.935L1000.76 1444.5L646.082 1249.4L645.905 597.661Z" fill="url(#paint5_linear_767_1598)"/>
<path opacity="0.2" d="M691.85 978.49L959.225 1125.7L959.932 1359.32L692.557 1212.11L691.85 978.49Z" fill="url(#paint6_linear_767_1598)"/>
<path opacity="0.15" d="M696.625 822.978L820.328 891.014V915.048L696.625 847.011V822.978Z" fill="white"/>
<path opacity="0.15" d="M697.154 870.691L820.857 938.728V962.761L697.154 894.725V870.691Z" fill="white"/>
<path opacity="0.15" d="M696.977 916.638L931.659 1045.82V1069.85L696.977 940.672L696.977 916.638Z" fill="white"/>
<path opacity="0.2" d="M645.905 597.661L1000.58 792.935L1000.93 905.505L646.082 710.408L645.905 597.661Z" fill="url(#paint7_linear_767_1598)"/>
<path opacity="0.2" d="M734.621 703.516C734.621 720.481 724.548 728.786 712.178 721.894C699.808 715.002 689.558 695.74 689.558 678.598C689.558 661.633 699.631 653.328 712.001 660.22C724.548 667.112 734.621 686.551 734.621 703.516Z" fill="white"/>
<path fill-rule="evenodd" clip-rule="evenodd" d="M856.555 976.369L856.202 879.527L1096.72 1011.89L1097.07 1108.73L856.555 976.369Z" fill="#F2C94C"/>
<path opacity="0.3" d="M581.931 567.443L56.0173 264.017L56.1941 538.107L535.631 814.848L582.108 883.592L581.931 567.443Z" fill="url(#paint8_linear_767_1598)"/>
<path fill-rule="evenodd" clip-rule="evenodd" d="M0 370.755V296.357L198.455 410.87V485.269L0 370.755Z" fill="#F2994A"/>
<path opacity="0.15" d="M446.743 556.133L331.522 489.687V513.72L446.743 580.166V556.133Z" fill="white"/>
<path opacity="0.15" d="M446.745 604.377L224.61 476.256V500.29L446.745 628.411V604.377Z" fill="white"/>
<path opacity="0.15" d="M446.744 652.444L177.602 497.109V521.143L446.744 676.478V652.444Z" fill="white"/>
<path fill-rule="evenodd" clip-rule="evenodd" d="M475.019 597.662C475.019 620.282 488.449 646.259 504.884 655.802C521.319 665.345 534.749 654.742 534.749 632.122C534.749 609.502 521.319 583.524 504.884 573.981C488.449 564.439 475.019 575.042 475.019 597.662Z" fill="#F2994A"/>
<path opacity="0.2" d="M412.638 849.838C423.241 855.847 431.724 870.691 431.724 882.885V936.784L467.421 957.283C478.024 963.292 486.507 978.136 486.507 990.33C486.507 1002.52 478.024 1007.47 467.421 1001.46L431.724 980.963V1034.86C431.724 1047.06 423.241 1052 412.638 1046C402.035 1039.99 393.553 1025.14 393.553 1012.95V959.05L357.856 938.374C347.253 932.366 338.77 917.522 338.77 905.328C338.77 893.134 347.253 888.186 357.856 894.195L393.553 914.694V860.795C393.553 848.778 402.035 843.83 412.638 849.838Z" fill="url(#paint9_linear_767_1598)"/>
<path opacity="0.2" d="M694.325 387.19L313.497 171.77L311.73 369.165L692.558 584.585L694.325 387.19Z" fill="url(#paint10_linear_767_1598)"/>
<path opacity="0.15" d="M410.516 274.444L525.029 339.299L524.852 362.98L410.339 298.124L410.516 274.444Z" fill="white"/>
<path opacity="0.15" d="M410.162 321.981L654.033 459.998L653.856 484.032L409.985 346.015L410.162 321.981Z" fill="white"/>
<path fill-rule="evenodd" clip-rule="evenodd" d="M390.194 281.689C390.017 297.947 380.297 305.723 368.281 298.831C356.264 292.116 346.721 273.383 346.898 257.125C347.074 240.867 356.794 233.092 368.811 239.984C380.828 246.699 390.37 265.431 390.194 281.689Z" fill="#F2C94C"/>
<path opacity="0.2" d="M1560.25 1271.49L1179.59 1056.07L1177.83 1253.46L1558.66 1468.88L1560.25 1271.49Z" fill="url(#paint11_linear_767_1598)"/>
<path opacity="0.15" d="M1276.61 1158.74L1391.12 1223.6L1390.95 1247.28L1276.43 1182.42L1276.61 1158.74Z" fill="white"/>
<path opacity="0.15" d="M1276.26 1206.28L1520.13 1344.3L1519.96 1368.33L1276.08 1230.31L1276.26 1206.28Z" fill="white"/>
<path fill-rule="evenodd" clip-rule="evenodd" d="M1256.29 1165.99C1256.11 1182.25 1246.39 1190.02 1234.38 1183.13C1222.36 1176.41 1212.82 1157.68 1212.99 1141.42C1213.17 1125.17 1222.89 1117.39 1234.91 1124.28C1246.92 1131 1256.47 1149.73 1256.29 1165.99Z" fill="#F2C94C"/>
<path opacity="0.1" d="M1116.15 7.77561C1044.41 21.7364 883.061 39.7616 812.728 0C813.258 281.336 882.178 680.543 1107.49 1009.77C1336.34 937.491 1411.45 619.928 1416.75 341.95C1346.42 302.012 1187.02 102.497 1116.15 7.77561Z" fill="url(#paint12_linear_767_1598)"/>
<path opacity="0.3" d="M1028.5 66.0929C956.751 80.0536 795.407 98.0789 725.073 58.3173C725.604 339.653 794.524 738.86 1019.84 1068.09C1248.69 995.808 1323.8 678.069 1329.1 400.267C1258.76 360.329 1099.36 160.814 1028.5 66.0929Z" fill="url(#paint13_linear_767_1598)"/>
<path opacity="0.4" d="M1329.28 400.091C1258.77 360.152 1099.54 160.814 1028.68 66.093L1020.02 1067.91C1248.69 995.808 1323.8 678.069 1329.28 400.091Z" fill="url(#paint14_linear_767_1598)"/>
<path opacity="0.1" d="M645.905 597.661L1000.58 792.935L1000.76 1444.5L646.082 1249.4L645.905 597.661Z" fill="url(#paint15_linear_767_1598)"/>
<path opacity="0.2" d="M691.85 978.49L959.225 1125.7L959.932 1359.32L692.557 1212.11L691.85 978.49Z" fill="url(#paint16_linear_767_1598)"/>
<path opacity="0.15" d="M696.625 822.978L820.328 891.014V915.048L696.625 847.011V822.978Z" fill="white"/>
<path opacity="0.15" d="M697.154 870.691L820.857 938.728V962.761L697.154 894.725V870.691Z" fill="white"/>
<path opacity="0.15" d="M696.977 916.638L931.659 1045.82V1069.85L696.977 940.672L696.977 916.638Z" fill="white"/>
<path opacity="0.2" d="M645.905 597.661L1000.58 792.935L1000.93 905.505L646.082 710.408L645.905 597.661Z" fill="url(#paint17_linear_767_1598)"/>
<path opacity="0.2" d="M734.621 703.516C734.621 720.481 724.548 728.786 712.178 721.894C699.808 715.002 689.558 695.74 689.558 678.598C689.558 661.633 699.631 653.328 712.001 660.22C724.548 667.112 734.621 686.551 734.621 703.516Z" fill="white"/>
<path fill-rule="evenodd" clip-rule="evenodd" d="M856.555 976.369L856.202 879.527L1096.72 1011.89L1097.07 1108.73L856.555 976.369Z" fill="#F2C94C"/>
<path opacity="0.3" d="M581.931 567.443L56.0173 264.017L56.1941 538.107L535.631 814.848L582.108 883.592L581.931 567.443Z" fill="url(#paint18_linear_767_1598)"/>
<path fill-rule="evenodd" clip-rule="evenodd" d="M0 370.755V296.357L198.455 410.87V485.269L0 370.755Z" fill="#F2994A"/>
<path opacity="0.15" d="M446.743 556.133L331.522 489.687V513.72L446.743 580.166V556.133Z" fill="white"/>
<path opacity="0.15" d="M446.745 604.377L224.61 476.256V500.29L446.745 628.411V604.377Z" fill="white"/>
<path opacity="0.15" d="M446.744 652.444L177.602 497.109V521.143L446.744 676.478V652.444Z" fill="white"/>
<path fill-rule="evenodd" clip-rule="evenodd" d="M475.019 597.662C475.019 620.282 488.449 646.259 504.884 655.802C521.319 665.345 534.749 654.742 534.749 632.122C534.749 609.502 521.319 583.524 504.884 573.981C488.449 564.439 475.019 575.042 475.019 597.662Z" fill="#F2994A"/>
<path opacity="0.2" d="M412.638 849.838C423.241 855.847 431.724 870.691 431.724 882.885V936.784L467.421 957.283C478.024 963.292 486.507 978.136 486.507 990.33C486.507 1002.52 478.024 1007.47 467.421 1001.46L431.724 980.963V1034.86C431.724 1047.06 423.241 1052 412.638 1046C402.035 1039.99 393.553 1025.14 393.553 1012.95V959.05L357.856 938.374C347.253 932.366 338.77 917.522 338.77 905.328C338.77 893.134 347.253 888.186 357.856 894.195L393.553 914.694V860.795C393.553 848.778 402.035 843.83 412.638 849.838Z" fill="url(#paint19_linear_767_1598)"/>
<defs>
<linearGradient id="paint0_linear_767_1598" x1="475.897" y1="257.117" x2="381.088" y2="401.034" gradientUnits="userSpaceOnUse">
<stop stop-color="white"/>
<stop offset="1" stop-color="white" stop-opacity="0.01"/>
</linearGradient>
<linearGradient id="paint1_linear_767_1598" x1="1342.02" y1="1141.47" x2="1247.19" y2="1285.29" gradientUnits="userSpaceOnUse">
<stop stop-color="white"/>
<stop offset="1" stop-color="white" stop-opacity="0.01"/>
</linearGradient>
<linearGradient id="paint2_linear_767_1598" x1="521.817" y1="510.127" x2="1096.26" y2="694.092" gradientUnits="userSpaceOnUse">
<stop stop-color="white"/>
<stop offset="1" stop-color="white" stop-opacity="0.01"/>
</linearGradient>
<linearGradient id="paint3_linear_767_1598" x1="434.148" y1="568.431" x2="1008.6" y2="752.396" gradientUnits="userSpaceOnUse">
<stop stop-color="white"/>
<stop offset="1" stop-color="white" stop-opacity="0.01"/>
</linearGradient>
<linearGradient id="paint4_linear_767_1598" x1="1343.14" y1="-135.862" x2="946.997" y2="-128.637" gradientUnits="userSpaceOnUse">
<stop stop-color="white"/>
<stop offset="1" stop-color="white" stop-opacity="0.01"/>
</linearGradient>
<linearGradient id="paint5_linear_767_1598" x1="572.4" y1="1294.84" x2="993.607" y2="1366.61" gradientUnits="userSpaceOnUse">
<stop stop-color="white"/>
<stop offset="1" stop-color="white" stop-opacity="0.01"/>
</linearGradient>
<linearGradient id="paint6_linear_767_1598" x1="619.437" y1="1096.79" x2="864.305" y2="1355.54" gradientUnits="userSpaceOnUse">
<stop stop-color="white"/>
<stop offset="1" stop-color="white" stop-opacity="0.01"/>
</linearGradient>
<linearGradient id="paint7_linear_767_1598" x1="593.35" y1="645.457" x2="678.767" y2="952.317" gradientUnits="userSpaceOnUse">
<stop stop-color="white"/>
<stop offset="1" stop-color="white" stop-opacity="0.01"/>
</linearGradient>
<linearGradient id="paint8_linear_767_1598" x1="376.987" y1="297.89" x2="80.0651" y2="465.508" gradientUnits="userSpaceOnUse">
<stop stop-color="white"/>
<stop offset="0.921875" stop-color="white" stop-opacity="0.09"/>
<stop offset="1" stop-color="white" stop-opacity="0.01"/>
</linearGradient>
<linearGradient id="paint9_linear_767_1598" x1="422.741" y1="855.754" x2="318.087" y2="900.253" gradientUnits="userSpaceOnUse">
<stop stop-color="white"/>
<stop offset="1" stop-color="white" stop-opacity="0.01"/>
</linearGradient>
<linearGradient id="paint10_linear_767_1598" x1="475.897" y1="257.117" x2="381.088" y2="401.034" gradientUnits="userSpaceOnUse">
<stop stop-color="white"/>
<stop offset="1" stop-color="white" stop-opacity="0.01"/>
</linearGradient>
<linearGradient id="paint11_linear_767_1598" x1="1342.02" y1="1141.47" x2="1247.19" y2="1285.29" gradientUnits="userSpaceOnUse">
<stop stop-color="white"/>
<stop offset="1" stop-color="white" stop-opacity="0.01"/>
</linearGradient>
<linearGradient id="paint12_linear_767_1598" x1="521.817" y1="510.127" x2="1096.26" y2="694.092" gradientUnits="userSpaceOnUse">
<stop stop-color="white"/>
<stop offset="1" stop-color="white" stop-opacity="0.01"/>
</linearGradient>
<linearGradient id="paint13_linear_767_1598" x1="434.148" y1="568.431" x2="1008.6" y2="752.396" gradientUnits="userSpaceOnUse">
<stop stop-color="white"/>
<stop offset="1" stop-color="white" stop-opacity="0.01"/>
</linearGradient>
<linearGradient id="paint14_linear_767_1598" x1="1343.14" y1="-135.862" x2="946.997" y2="-128.637" gradientUnits="userSpaceOnUse">
<stop stop-color="white"/>
<stop offset="1" stop-color="white" stop-opacity="0.01"/>
</linearGradient>
<linearGradient id="paint15_linear_767_1598" x1="572.4" y1="1294.84" x2="993.607" y2="1366.61" gradientUnits="userSpaceOnUse">
<stop stop-color="white"/>
<stop offset="1" stop-color="white" stop-opacity="0.01"/>
</linearGradient>
<linearGradient id="paint16_linear_767_1598" x1="619.437" y1="1096.79" x2="864.305" y2="1355.54" gradientUnits="userSpaceOnUse">
<stop stop-color="white"/>
<stop offset="1" stop-color="white" stop-opacity="0.01"/>
</linearGradient>
<linearGradient id="paint17_linear_767_1598" x1="593.35" y1="645.457" x2="678.767" y2="952.317" gradientUnits="userSpaceOnUse">
<stop stop-color="white"/>
<stop offset="1" stop-color="white" stop-opacity="0.01"/>
</linearGradient>
<linearGradient id="paint18_linear_767_1598" x1="376.987" y1="297.89" x2="80.0651" y2="465.508" gradientUnits="userSpaceOnUse">
<stop stop-color="white"/>
<stop offset="0.921875" stop-color="white" stop-opacity="0.09"/>
<stop offset="1" stop-color="white" stop-opacity="0.01"/>
</linearGradient>
<linearGradient id="paint19_linear_767_1598" x1="422.741" y1="855.754" x2="318.087" y2="900.253" gradientUnits="userSpaceOnUse">
<stop stop-color="white"/>
<stop offset="1" stop-color="white" stop-opacity="0.01"/>
</linearGradient>
</defs>
</svg>
