<svg width="529" height="529" viewBox="0 0 529 529" fill="none" xmlns="http://www.w3.org/2000/svg">
<g style="mix-blend-mode:overlay">
<path d="M495.961 269.64C495.961 250.611 494.385 236.725 490.975 222.324H269.247V308.212H399.396C396.773 329.557 382.604 361.701 351.115 383.301L350.674 386.176L420.78 439.4L425.637 439.876C470.244 399.502 495.961 340.1 495.961 269.64" fill="white"/>
</g>
<g style="mix-blend-mode:overlay">
<path d="M269.232 495.937C332.994 495.937 386.523 475.364 425.622 439.878L351.1 383.302C331.158 396.932 304.393 406.446 269.232 406.446C206.781 406.446 153.777 366.074 134.882 310.271L132.113 310.502L59.2153 365.79L58.262 368.388C97.0967 443.991 176.866 495.937 269.232 495.937Z" fill="white"/>
</g>
<g style="mix-blend-mode:overlay">
<path d="M134.896 310.273C129.911 295.872 127.025 280.442 127.025 264.499C127.025 248.555 129.911 233.126 134.634 218.726L134.502 215.659L60.6905 159.483L58.2755 160.609C42.2698 191.982 33.0857 227.212 33.0857 264.499C33.0857 301.786 42.2698 337.015 58.2755 368.388L134.896 310.273" fill="white"/>
</g>
<g style="mix-blend-mode:overlay">
<path d="M269.233 122.551C313.578 122.551 343.491 141.323 360.548 157.01L427.198 93.2362C386.264 55.9492 332.996 33.0625 269.233 33.0625C176.867 33.0625 97.0969 85.0069 58.262 160.609L134.62 218.727C153.777 162.925 206.782 122.551 269.233 122.551" fill="white"/>
</g>
</svg>
